# xmcd
#
# Track frame offsets:
#	150
#	17110
#	34042
#	52640
#	70275
#	86405
#	103525
#	122392
#	141230
#	160132
#	182740
#	204295
#	220242
#	238045
#	256585
#	276600
#
# Disc length: 3972 seconds
#
# Revision: 1
# Processed by: cddbd v1.5PL3 Copyright (c) Steve Scherf et al.
# Submitted via: EasyCDDAExtractor 6.5.5.1
#
DISCID=d60f8210
DTITLE=Jessica Andrews - Now
DYEAR=2003
DGENRE=Country
TTITLE0=There's More to Me Than You Know
TTITLE1=When Gentry Plays Guitar
TTITLE2=I Wish For You
TTITLE3=To Love You Once
TTITLE4=I Bring It To you
TTITLE5=Never Be Forgotten
TTITLE6=They Are The Roses
TTITLE7=Sunshine And Love
TTITLE8=You're The Man
TTITLE9=Cowboy Guarantee
TTITLE10=Now
TTITLE11=Second Sunday
TTITLE12=Windows On A Train
TTITLE13=God Don't Give Up On Us
TTITLE14=Good Time
TTITLE15=There's More To Me Than You Know (Ballad)
EXTD=
EXTT0=
EXTT1=
EXTT2=
EXTT3=
EXTT4=
EXTT5=
EXTT6=
EXTT7=
EXTT8=
EXTT9=
EXTT10=
EXTT11=
EXTT12=
EXTT13=
EXTT14=
EXTT15=
PLAYORDER=
